<svg width="20" height="20" viewBox="0 0 20 20" fill="none" xmlns="http://www.w3.org/2000/svg">
<path fill-rule="evenodd" clip-rule="evenodd" d="M14.4451 3C15.652 3 16.813 3.43647 17.6671 4.21965C18.5221 5.00118 19 6.05529 19 7.15882V13.6647C19 15.9624 16.957 17.8235 14.4451 17.8235H5.554C3.0421 17.8235 1 15.9624 1 13.6647V7.15882C1 4.86118 3.0331 3 5.554 3H14.4451ZM15.8771 8.38587L15.9491 8.31999C16.1642 8.08117 16.1642 7.73528 15.9392 7.49646C15.8141 7.37375 15.6422 7.29881 15.4631 7.28234C15.2741 7.27328 15.0941 7.33175 14.9582 7.44705L10.9001 10.4118C10.3781 10.8079 9.63024 10.8079 9.10014 10.4118L5.05014 7.44705C4.77024 7.25764 4.38324 7.28234 4.15014 7.5047C3.90714 7.72705 3.88014 8.08117 4.08624 8.32823L4.20414 8.43528L8.29914 11.3588C8.80314 11.7212 9.41424 11.9188 10.0541 11.9188C10.6922 11.9188 11.3141 11.7212 11.8172 11.3588L15.8771 8.38587Z" fill="black"/>
</svg>
